<?xml version="1.0" encoding="utf-8"?>
<!-- Generator: Adobe Illustrator 18.0.0, SVG Export Plug-In . SVG Version: 6.00 Build 0)  -->
<!DOCTYPE svg PUBLIC "-//W3C//DTD SVG 1.1//EN" "http://www.w3.org/Graphics/SVG/1.1/DTD/svg11.dtd">
<svg version="1.1" id="Слой_1" xmlns="http://www.w3.org/2000/svg" xmlns:xlink="http://www.w3.org/1999/xlink" x="0px" y="0px"
	 viewBox="0 0 27.5 24.6" enable-background="new 0 0 27.5 24.6" xml:space="preserve">
<g>
	<path fill="#FFFFFF" d="M17,16c-0.1,0-0.2,0-0.3,0.1c-0.1,0.1-0.1,0.2-0.1,0.3c0.2,1.1,0.9,2.6,3.1,3.6c0.3,0.1,0.7,0.2,1.2,0.3
		c1.9,0.4,5.1,1.1,5.9,4c0,0.2,0.2,0.3,0.4,0.3c0,0,0.1,0,0.1,0c0.2-0.1,0.3-0.3,0.3-0.5C26.6,20.8,23,20,21,19.6
		c-0.4-0.1-0.8-0.2-1-0.3c-1.3-0.6-2.2-1.4-2.5-2.5c3.7,0.3,5.3-1.2,5.4-1.3c0.1-0.1,0.1-0.2,0.1-0.3c0-0.1-0.1-0.2-0.2-0.3
		c-2.1-1.2-2.1-5.4-2.1-7c0-4.4-3-7.9-6.8-7.9c0,0-0.1,0-0.1,0h0c-3.9,0-7,3.5-7,7.8c0,1.6,0,5.8-2.1,7c-0.1,0.1-0.2,0.2-0.2,0.3
		c0,0.1,0,0.3,0.1,0.3c0.1,0.1,2.5,1.9,5.3,1.3c-0.4,1.1-1.2,1.9-2.5,2.4c-0.2,0.1-0.6,0.2-1,0.3c-2,0.5-5.6,1.3-6.5,4.7
		c-0.1,0.2,0.1,0.4,0.3,0.5c0.2,0.1,0.4-0.1,0.5-0.3c0.8-3,4-3.7,5.9-4.2c0.5-0.1,0.9-0.2,1.1-0.3c2.2-1,2.9-2.5,3.1-3.6
		c0-0.1,0-0.3-0.1-0.4c-0.1-0.1-0.2-0.1-0.4-0.1c-2.1,0.7-4-0.2-4.9-0.7c2-1.7,2-5.6,2-7.3c0-3.8,2.8-7,6.3-7c0,0,0.1,0,0.1,0
		c3.4,0,6,3.1,6,7.2c0,1.7,0,5.6,2,7.3C21.2,15.6,19.7,16.3,17,16z"/>
</g>
</svg>
