<svg width="14" height="33" viewBox="0 0 14 33" fill="none" xmlns="http://www.w3.org/2000/svg">
<path d="M13.7332 31.0724C14.0655 31.5135 13.9774 32.1405 13.5364 32.4729C13.0953 32.8053 12.4683 32.7171 12.1359 32.2761L0.701418 17.102C0.369044 16.6609 0.457164 16.0339 0.898238 15.7015C1.33931 15.3692 1.96632 15.4573 2.29869 15.8984L13.7332 31.0724Z" fill="#C4C4C4"/>
<path d="M0.701453 16.0724C0.36908 16.5135 0.457199 17.1405 0.898273 17.4729C1.33935 17.8053 1.96635 17.7171 2.29872 17.2761L13.7332 2.102C14.0656 1.66092 13.9775 1.03392 13.5364 0.70155C13.0953 0.369175 12.4683 0.457294 12.1359 0.898369L0.701453 16.0724Z" fill="#C4C4C4"/>
</svg>
