<?xml version="1.0" encoding="utf-8"?>
<!-- Generator: Adobe Illustrator 18.0.0, SVG Export Plug-In . SVG Version: 6.00 Build 0)  -->
<!DOCTYPE svg PUBLIC "-//W3C//DTD SVG 1.1//EN" "http://www.w3.org/Graphics/SVG/1.1/DTD/svg11.dtd">
<svg version="1.1" id="Слой_1" xmlns="http://www.w3.org/2000/svg" xmlns:xlink="http://www.w3.org/1999/xlink" x="0px" y="0px"
	 viewBox="0 0 19.8 18.2" enable-background="new 0 0 19.8 18.2" xml:space="preserve">
<path fill="#FFFFFF" d="M19.8,8.1C19.8,3.5,15.6,0,10,0C4.4,0,0,3.6,0,8.1c0,2.7,1.9,4.7,3.6,5.9v4c0,0.1,0.1,0.2,0.1,0.3
	c0,0,0.1,0,0.2,0c0,0,0.1,0,0.1,0c0.1,0,2.1-1,3.9-2.9c0.8,0.1,1.6,0.3,2.4,0.3C16,15.6,19.8,12.6,19.8,8.1z M10.3,15
	c-0.8,0-1.7-0.2-2.4-0.3c-0.1,0-0.2,0-0.3,0.1c-1.2,1.4-2.7,2.3-3.4,2.6v-3.6c0-0.1,0-0.2-0.1-0.2c-1.6-1.1-3.5-2.9-3.5-5.4
	c0-4.2,4.1-7.5,9.4-7.5c5.2,0,9.2,3.2,9.2,7.5C19.2,12.2,15.6,15,10.3,15z"/>
</svg>
