<?xml version="1.0" encoding="utf-8"?>
<!-- Generator: Adobe Illustrator 18.0.0, SVG Export Plug-In . SVG Version: 6.00 Build 0)  -->
<!DOCTYPE svg PUBLIC "-//W3C//DTD SVG 1.1//EN" "http://www.w3.org/Graphics/SVG/1.1/DTD/svg11.dtd">
<svg version="1.1" id="Слой_1" xmlns="http://www.w3.org/2000/svg" xmlns:xlink="http://www.w3.org/1999/xlink" x="0px" y="0px"
	 viewBox="0 0 25 25" enable-background="new 0 0 25 25" xml:space="preserve">
<path opacity="0.3" fill="#FFFFFF" d="M12.5,25C19.4,25,25,19.4,25,12.5S19.4,0,12.5,0S0,5.6,0,12.5S5.6,25,12.5,25z M12.5,0.7
	C19,0.7,24.2,6,24.2,12.5S19,24.2,12.5,24.2S0.8,18.9,0.8,12.5S6,0.7,12.5,0.7z M15.7,17c0.1,0.1,0.2,0.1,0.3,0.1
	c0.1,0,0.2,0,0.3-0.1c0.2-0.2,0.2-0.4,0-0.6l-3.7-3.7V7.3c0-0.2-0.2-0.4-0.4-0.4S11.7,7,11.7,7.3v5.6c0,0.1,0,0.2,0.1,0.3L15.7,17z
	 M2.3,12.5c0,0.4,0.4,0.8,0.8,0.8s0.8-0.4,0.8-0.8c0-0.4-0.4-0.8-0.8-0.8S2.3,12,2.3,12.5z M21.1,12.5c0,0.4,0.4,0.8,0.8,0.8
	s0.8-0.4,0.8-0.8c0-0.4-0.4-0.8-0.8-0.8S21.1,12,21.1,12.5z M11.7,3.1c0,0.4,0.4,0.8,0.8,0.8c0.4,0,0.8-0.4,0.8-0.8
	s-0.4-0.8-0.8-0.8C12.1,2.3,11.7,2.7,11.7,3.1z M11.7,21.9c0,0.4,0.4,0.8,0.8,0.8c0.4,0,0.8-0.4,0.8-0.8s-0.4-0.8-0.8-0.8
	C12.1,21.1,11.7,21.4,11.7,21.9z M5.5,6.2C5.5,6.7,5.8,7,6.3,7S7,6.7,7,6.2c0-0.4-0.4-0.8-0.8-0.8S5.5,5.8,5.5,6.2z M18,18.7
	c0,0.4,0.4,0.8,0.8,0.8s0.8-0.4,0.8-0.8c0-0.4-0.4-0.8-0.8-0.8S18,18.3,18,18.7z M18.8,6.2c0,0.4,0.4,0.8,0.8,0.8s0.8-0.4,0.8-0.8
	c0-0.4-0.4-0.8-0.8-0.8S18.8,5.8,18.8,6.2z M5.5,18.7c0,0.4,0.4,0.8,0.8,0.8S7,19.2,7,18.7c0-0.4-0.4-0.8-0.8-0.8S5.5,18.3,5.5,18.7
	z"/>
</svg>
