<?xml version="1.0" encoding="utf-8"?>
<!-- Generator: Adobe Illustrator 18.0.0, SVG Export Plug-In . SVG Version: 6.00 Build 0)  -->
<!DOCTYPE svg PUBLIC "-//W3C//DTD SVG 1.1//EN" "http://www.w3.org/Graphics/SVG/1.1/DTD/svg11.dtd">
<svg version="1.1" id="Слой_1" xmlns="http://www.w3.org/2000/svg" xmlns:xlink="http://www.w3.org/1999/xlink" x="0px" y="0px"
	 viewBox="0 0 595.3 841.9" enable-background="new 0 0 595.3 841.9" xml:space="preserve">
<path opacity="0.3" enable-background="new    " d="M297.6,718.6c164.3,0,297.6-133.3,297.6-297.6S461.9,123.3,297.6,123.3
	S0,256.6,0,420.9S133.3,718.6,297.6,718.6z M297.6,140c154.8,0,278.6,126.2,278.6,281S452.4,699.5,297.6,699.5S19,573.3,19,420.9
	S142.9,140,297.6,140z M373.8,528.1c2.4,2.4,4.8,2.4,7.1,2.4s4.8,0,7.1-2.4c4.8-4.8,4.8-9.5,0-14.3L300,425.7V297.1
	c0-4.8-4.8-9.5-9.5-9.5s-11.9,2.4-11.9,9.5v133.3c0,2.4,0,4.8,2.4,7.1L373.8,528.1z M54.8,420.9c0,9.5,9.5,19,19,19s19-9.5,19-19
	c0-9.5-9.5-19-19-19S54.8,409,54.8,420.9z M502.4,420.9c0,9.5,9.5,19,19,19c9.5,0,19-9.5,19-19c0-9.5-9.5-19-19-19
	C511.9,401.9,502.4,409,502.4,420.9z M278.6,197.1c0,9.5,9.5,19,19,19c9.5,0,19-9.5,19-19c0-9.5-9.5-19-19-19
	C288.1,178.1,278.6,187.6,278.6,197.1z M278.6,644.8c0,9.5,9.5,19,19,19c9.5,0,19-9.5,19-19s-9.5-19-19-19
	C288.1,625.7,278.6,632.9,278.6,644.8z M131,270.9c0,11.9,7.1,19,19,19c11.9,0,16.7-7.1,16.7-19c0-9.5-9.5-19-19-19
	C138.1,251.9,131,261.4,131,270.9z M428.6,568.6c0,9.5,9.5,19,19,19s19-9.5,19-19s-9.5-19-19-19S428.6,559,428.6,568.6z
	 M447.7,270.9c0,9.5,9.5,19,19,19c9.5,0,19-9.5,19-19c0-9.5-9.5-19-19-19C457.2,251.9,447.7,261.4,447.7,270.9z M131,568.6
	c0,9.5,9.5,19,19,19c9.5,0,16.7-7.1,16.7-19c0-9.5-9.5-19-19-19C138.1,549.5,131,559,131,568.6z"/>
</svg>
