<?xml version="1.0" encoding="utf-8"?>
<!-- Generator: Adobe Illustrator 18.0.0, SVG Export Plug-In . SVG Version: 6.00 Build 0)  -->
<!DOCTYPE svg PUBLIC "-//W3C//DTD SVG 1.1//EN" "http://www.w3.org/Graphics/SVG/1.1/DTD/svg11.dtd">
<svg version="1.1" id="Слой_1" xmlns="http://www.w3.org/2000/svg" xmlns:xlink="http://www.w3.org/1999/xlink" x="0px" y="0px"
	 viewBox="0 0 595.3 841.9" enable-background="new 0 0 595.3 841.9" xml:space="preserve">
<path fill="#FFFFFF" enable-background="new    " d="M0,434.9c7,158.1,137.2,286,297.6,286s290.7-127.9,297.6-286v-2.3v-2.3
	c0-2.3,0-4.7,0-7c0-167.4-132.5-300-297.6-300S0,255.8,0,420.9c0,2.3,0,4.7,0,7v2.3C0,432.6,0,432.6,0,434.9z M465.1,546.5
	c-25.6-9.3-51.2-18.6-79.1-23.3c2.3-27.9,4.7-55.8,4.7-83.7h93C481.3,479.1,474.4,514,465.1,546.5z M502.3,439.5h74.4
	c-2.3,51.2-20.9,100-48.8,141.8c-14-9.3-30.2-18.6-46.5-27.9C493,518.6,499.9,481.4,502.3,439.5z M230.2,537.2
	c20.9-2.3,44.2-4.7,67.4-4.7c23.3,0,44.2,2.3,67.4,4.7c-14,100-41.9,162.8-67.4,162.8C272.1,700,244.2,637.2,230.2,537.2z
	 M258.1,695.3c-51.2-16.3-95.3-65.1-120.9-130.2c23.3-9.3,48.8-16.3,74.4-23.3C220.9,607,237.2,662.8,258.1,695.3z M227.9,323.3
	c23.3,4.7,46.5,4.7,69.8,4.7c23.3,0,46.5-2.3,69.8-4.7c2.3,30.2,4.7,62.8,4.7,97.7H223.2C223.2,386.1,225.6,353.5,227.9,323.3z
	 M372.1,439.5c0,27.9-2.3,55.8-4.7,79.1c-23.3-4.7-46.5-4.7-69.8-4.7c-23.3,0-46.5,2.3-69.8,4.7c-2.3-30.2-4.7-55.8-4.7-79.1H372.1z
	 M383.7,541.9c25.6,4.7,51.2,14,74.4,23.3c-25.6,65.1-69.8,113.9-120.9,130.2C358.1,662.8,374.4,607,383.7,541.9z M390.7,420.9
	c0-34.9-2.3-69.8-4.7-102.3c27.9-4.7,53.5-14,79.1-23.3c11.6,37.2,20.9,81.4,20.9,125.6L390.7,420.9L390.7,420.9z M383.7,300
	c-9.3-65.1-23.3-120.9-46.5-153.5c51.2,16.3,95.3,65.1,120.9,130.2C434.8,288.4,409.3,295.4,383.7,300z M365.1,304.7
	c-20.9,2.3-44.2,4.7-67.4,4.7c-23.3,0-44.2-2.3-67.4-4.7c14-100,41.9-162.8,67.4-162.8C323.2,141.9,353.4,204.7,365.1,304.7z
	 M211.6,300c-25.6-4.7-51.2-11.6-74.4-20.9C162.8,214,207,165.2,258.1,148.9C237.2,179.1,220.9,234.9,211.6,300z M209.3,318.6
	c-4.7,32.6-4.7,67.4-4.7,102.3h-93c0-44.2,7-88.4,20.9-125.6C155.8,307,183.7,314,209.3,318.6z M204.6,439.5
	c0,27.9,2.3,55.8,4.7,83.7c-27.9,4.7-53.5,14-79.1,23.3c-11.6-32.6-18.6-69.8-18.6-107H204.6z M113.9,553.5
	c-16.3,7-32.6,16.3-46.5,27.9C39.5,541.9,20.9,493,18.6,439.5H93C95.3,481.4,102.3,518.6,113.9,553.5z M81.4,595.3
	c11.6-9.3,25.6-16.3,41.9-23.3c18.6,46.5,46.5,83.7,79.1,111.6C153.5,665.1,111.6,634.9,81.4,595.3z M397.6,681.4
	c32.6-25.6,58.1-65.1,79.1-111.6c14,7,27.9,16.3,41.9,23.3C483.7,634.9,444.1,665.1,397.6,681.4z M502.3,420.9
	c0-48.8-7-93-20.9-132.5c16.3-7,32.6-16.3,46.5-27.9c32.6,44.2,51.2,100,51.2,160.4L502.3,420.9L502.3,420.9z M516.2,246.5
	c-11.6,9.3-25.6,16.3-41.9,23.3c-18.6-46.5-46.5-83.7-79.1-111.6C444.1,179.1,483.7,207,516.2,246.5z M200,160.5
	c-32.6,25.6-60.5,65.1-79.1,109.3c-14-7-27.9-14-39.5-23.3C111.6,207,153.5,179.1,200,160.5z M69.8,260.5
	c14,9.3,30.2,18.6,46.5,27.9C100,327.9,93,374.4,93,420.9H18.6C18.6,362.8,37.2,307,69.8,260.5z"/>
</svg>
