<svg width="161" height="25" viewBox="0 0 161 25" fill="none" xmlns="http://www.w3.org/2000/svg">
<rect width="160.3" height="24.7" fill="black" fill-opacity="0"/>
<rect width="160.3" height="24.7" fill="black" fill-opacity="0"/>
<path d="M2 1.39998H0.2C0.1 1.39998 0 1.29998 0 1.19998V0.699976C0 0.599976 0.1 0.599976 0.2 0.599976H5.5C5.6 0.599976 5.8 0.699976 5.8 0.799976V12.4L17.1 0.799976C17.2 0.699976 17.5 0.599976 17.6 0.599976H19.8C19.9 0.599976 20 0.599976 20 0.699976V1.19998C20 1.29998 19.9 1.39998 19.8 1.39998H18.3L8.8 11.1C11.1 14 16 19.2 17.8 20.9C19.2 22.1 20.3 23 21.5 23C22.3 23 22.6 22.6 22.8 22.6C22.9 22.6 22.9 22.7 23 22.8C23.1 22.9 23.1 23.1 23.1 23.1C23.1 23.2 23 23.3 22.8 23.4C22.5 23.6 21.2 24.5 19.3 24.5C17.3 24.5 16 23.9 14.5 22.6C11.9 20.4 8.1 16 5.6 12.8V23.4H7.5C7.6 23.4 7.7 23.5 7.7 23.6V24.1C7.7 24.2 7.6 24.2 7.5 24.2H2.2C2.1 24.2 2 24.1 2 24V1.39998Z" fill="#51A5B0"/>
<path d="M45.9 12.9C43.6 9.29998 41 4.99998 38.4 1.29998H36.8C36.7 1.29998 36.6 1.19998 36.6 1.09998V0.699976C36.6 0.599976 36.7 0.599976 36.8 0.599976H42.4C42.5 0.599976 42.7 0.699976 42.8 0.799976C44.8 3.69998 47.3 7.79998 49.4 11.3C51.5 7.79998 54 3.49998 55.9 0.899976C56 0.699976 56.2 0.599976 56.4 0.599976H59.1C59.2 0.599976 59.3 0.599976 59.3 0.699976V1.19998C59.3 1.29998 59.2 1.39998 59.1 1.39998H57.3C54.9 4.69998 52.3 8.69998 49.9 12.8V23.4H51.9C52 23.4 52.1 23.5 52.1 23.6V24.1C52.1 24.2 52 24.2 51.9 24.2H46.4C46.3 24.2 46.1 24.1 46.1 23.9V12.9H45.9Z" fill="#51A5B0"/>
<path d="M79.3 23.3H81.7C81.8 23.3 81.9 23.4 81.9 23.5V24.1C81.9 24.2 81.8 24.2 81.7 24.2H78.2C78.1 24.2 77.9 24.1 77.9 23.9V1.39998H76.1C76 1.39998 75.9 1.29998 75.9 1.19998V0.699976C75.9 0.599976 76 0.599976 76.1 0.599976H79C79.2 0.599976 79.4 0.699976 79.5 0.899976C84.9 6.49998 93.3 14.6 98.5 19.1V0.899976C98.5 0.699976 98.6 0.599976 98.8 0.599976H101.7C101.8 0.599976 101.9 0.599976 101.9 0.699976V1.19998C101.9 1.29998 101.8 1.39998 101.7 1.39998H99.9V24.4C99.9 24.5 99.8 24.7 99.6 24.7H99.3C99.1 24.7 99 24.6 98.8 24.4C92.7 19.3 84 11.1 79.3 5.99998V23.3Z" fill="#51A5B0"/>
<path d="M122.4 4.5C122.4 6.7 124.5 8 128.3 9.8C132.1 11.6 135 13.8 135 17.8C135 21.9 131.7 24.7 126.7 24.7C122.9 24.7 120.3 22.9 119.3 22.2C118.9 21.9 118.7 21.7 118.7 21.5C118.7 21.4 118.8 21.2 118.9 21C119 20.8 119.1 20.7 119.3 20.7C119.4 20.7 119.7 20.9 119.8 21C121 21.8 123.4 23.3 126.6 23.3C129.7 23.3 132 21.9 132 19.4C132 16.7 129.3 14.9 125.5 13.1C121.2 11 119.6 9.1 119.6 5.8C119.6 2.2 122.7 0 127 0C129 0 130.6 0.6 131.8 1.3C132.9 1.9 133.8 2.7 133.8 3.7C133.8 4.5 133.2 5.2 132.3 5.2C131.4 5.2 130.8 4.6 130.8 3.7C130.8 3 131.3 2.5 131.8 2.3C131 1.8 129.3 1.1 127.3 1.1C124.6 1.1 122.4 2.2 122.4 4.5Z" fill="#51A5B0"/>
<path d="M154.5 1.39998H152.7C152.6 1.39998 152.5 1.29998 152.5 1.19998V0.699976C152.5 0.599976 152.6 0.599976 152.7 0.599976H158C158.1 0.599976 158.3 0.699976 158.3 0.799976V23.4H160.1C160.2 23.4 160.3 23.5 160.3 23.6V24.1C160.3 24.2 160.2 24.2 160.1 24.2H154.7C154.6 24.2 154.4 24.1 154.4 23.9V1.39998H154.5Z" fill="#51A5B0"/>
</svg>
