<svg width="161" height="26" viewBox="0 0 161 26" fill="none" xmlns="http://www.w3.org/2000/svg">
<path d="M2 2.05H0.2C0.1 2.05 0 1.95 0 1.85V1.35C0 1.25 0.1 1.25 0.2 1.25H5.5C5.6 1.25 5.8 1.35 5.8 1.45V13.05L17.1 1.45C17.2 1.35 17.5 1.25 17.6 1.25H19.8C19.9 1.25 20 1.25 20 1.35V1.85C20 1.95 19.9 2.05 19.8 2.05H18.3L8.8 11.75C11.1 14.65 16 19.85 17.8 21.55C19.2 22.75 20.3 23.65 21.5 23.65C22.3 23.65 22.6 23.25 22.8 23.25C22.9 23.25 22.9 23.35 23 23.45C23.1 23.55 23.1 23.75 23.1 23.75C23.1 23.85 23 23.95 22.8 24.05C22.5 24.25 21.2 25.15 19.3 25.15C17.3 25.15 16 24.55 14.5 23.25C11.9 21.05 8.1 16.65 5.6 13.45V24.05H7.5C7.6 24.05 7.7 24.15 7.7 24.25V24.75C7.7 24.85 7.6 24.85 7.5 24.85H2.2C2.1 24.85 2 24.75 2 24.65V2.05Z" fill="#292A35"/>
<path d="M45.9 13.55C43.6 9.95 41 5.65 38.4 1.95H36.8C36.7 1.95 36.6 1.85 36.6 1.75V1.35C36.6 1.25 36.7 1.25 36.8 1.25H42.4C42.5 1.25 42.7 1.35 42.8 1.45C44.8 4.35 47.3 8.45 49.4 11.95C51.5 8.45 54 4.15 55.9 1.55C56 1.35 56.2 1.25 56.4 1.25H59.1C59.2 1.25 59.3 1.25 59.3 1.35V1.85C59.3 1.95 59.2 2.05 59.1 2.05H57.3C54.9 5.35 52.3 9.35 49.9 13.45V24.05H51.9C52 24.05 52.1 24.15 52.1 24.25V24.75C52.1 24.85 52 24.85 51.9 24.85H46.4C46.3 24.85 46.1 24.75 46.1 24.55V13.55H45.9Z" fill="#292A35"/>
<path d="M79.3 23.95H81.7C81.8 23.95 81.9 24.05 81.9 24.15V24.75C81.9 24.85 81.8 24.85 81.7 24.85H78.2C78.1 24.85 77.9 24.75 77.9 24.55V2.05H76.1C76 2.05 75.9 1.95 75.9 1.85V1.35C75.9 1.25 76 1.25 76.1 1.25H79C79.2 1.25 79.4 1.35 79.5 1.55C84.9 7.15 93.3 15.25 98.5 19.75V1.55C98.5 1.35 98.6 1.25 98.8 1.25H101.7C101.8 1.25 101.9 1.25 101.9 1.35V1.85C101.9 1.95 101.8 2.05 101.7 2.05H99.9V25.05C99.9 25.15 99.8 25.35 99.6 25.35H99.3C99.1 25.35 99 25.25 98.8 25.05C92.7 19.95 84 11.75 79.3 6.65V23.95Z" fill="#292A35"/>
<path d="M122.4 5.1499C122.4 7.3499 124.5 8.6499 128.3 10.4499C132.1 12.2499 135 14.4499 135 18.4499C135 22.5499 131.7 25.3499 126.7 25.3499C122.9 25.3499 120.3 23.5499 119.3 22.8499C118.9 22.5499 118.7 22.3499 118.7 22.1499C118.7 22.0499 118.8 21.8499 118.9 21.6499C119 21.4499 119.1 21.3499 119.3 21.3499C119.4 21.3499 119.7 21.5499 119.8 21.6499C121 22.4499 123.4 23.9499 126.6 23.9499C129.7 23.9499 132 22.5499 132 20.0499C132 17.3499 129.3 15.5499 125.5 13.7499C121.2 11.6499 119.6 9.7499 119.6 6.4499C119.6 2.8499 122.7 0.649902 127 0.649902C129 0.649902 130.6 1.2499 131.8 1.9499C132.9 2.5499 133.8 3.3499 133.8 4.3499C133.8 5.1499 133.2 5.8499 132.3 5.8499C131.4 5.8499 130.8 5.2499 130.8 4.3499C130.8 3.6499 131.3 3.1499 131.8 2.9499C131 2.4499 129.3 1.7499 127.3 1.7499C124.6 1.7499 122.4 2.8499 122.4 5.1499Z" fill="#292A35"/>
<path d="M154.5 2.05H152.7C152.6 2.05 152.5 1.95 152.5 1.85V1.35C152.5 1.25 152.6 1.25 152.7 1.25H158C158.1 1.25 158.3 1.35 158.3 1.45V24.05H160.1C160.2 24.05 160.3 24.15 160.3 24.25V24.75C160.3 24.85 160.2 24.85 160.1 24.85H154.7C154.6 24.85 154.4 24.75 154.4 24.55V2.05H154.5Z" fill="#292A35"/>
</svg>
