<?xml version="1.0" encoding="utf-8"?>
<!-- Generator: Adobe Illustrator 18.0.0, SVG Export Plug-In . SVG Version: 6.00 Build 0)  -->
<!DOCTYPE svg PUBLIC "-//W3C//DTD SVG 1.1//EN" "http://www.w3.org/Graphics/SVG/1.1/DTD/svg11.dtd">
<svg version="1.1" id="Слой_1" xmlns="http://www.w3.org/2000/svg" xmlns:xlink="http://www.w3.org/1999/xlink" x="0px" y="0px"
	 viewBox="284.333 408.015 26.25 23.333" enable-background="new 284.333 408.015 26.25 23.333" xml:space="preserve">
<path fill="#FFFFFF" stroke="#000000" stroke-miterlimit="10" d="M302.843,409.682c-1.538,0-3.077,0.549-4.176,1.648
	c-0.44,0.44-0.769,0.879-1.099,1.319c-0.33-0.549-0.659-0.989-1.099-1.319c-1.319-1.099-2.747-1.648-4.396-1.648
	c-3.407,0-6.264,2.857-6.264,6.264c0,2.308,0.769,4.176,2.418,6.154c2.527,2.857,8.791,7.363,9.011,7.473c0,0,0.11,0.11,0.22,0.11
	s0.11,0,0.22-0.11c0.22-0.22,6.593-4.615,9.011-7.473c1.758-1.978,2.418-3.846,2.418-6.154
	C309.107,412.539,306.359,409.682,302.843,409.682z"/>
</svg>
