<?xml version="1.0" encoding="utf-8"?>
<!-- Generator: Adobe Illustrator 18.0.0, SVG Export Plug-In . SVG Version: 6.00 Build 0)  -->
<!DOCTYPE svg PUBLIC "-//W3C//DTD SVG 1.1//EN" "http://www.w3.org/Graphics/SVG/1.1/DTD/svg11.dtd">
<svg version="1.1" id="Слой_1" xmlns="http://www.w3.org/2000/svg" xmlns:xlink="http://www.w3.org/1999/xlink" x="0px" y="0px"
	 viewBox="0 0 21.2 18.3" enable-background="new 0 0 21.2 18.3" xml:space="preserve">
<path fill="#FFFFFF" d="M15.5,0c-1.4,0-2.8,0.5-3.8,1.5c-0.4,0.4-0.7,0.8-1,1.2c-0.3-0.5-0.6-0.9-1-1.2C8.5,0.5,7.2,0,5.7,0
	C2.6,0,0,2.6,0,5.7c0,2.1,0.7,3.8,2.2,5.6c2.3,2.6,8,6.7,8.2,6.8c0,0,0.1,0.1,0.2,0.1c0.1,0,0.1,0,0.2-0.1c0.2-0.2,6-4.2,8.2-6.8
	c1.6-1.8,2.2-3.5,2.2-5.6C21.2,2.6,18.7,0,15.5,0z M18.6,11c-2,2.3-7,5.9-8,6.6c-1-0.7-6-4.3-8-6.6C1.2,9.3,0.6,7.7,0.6,5.7
	c0-2.8,2.3-5.2,5.2-5.2C7,0.6,8.2,1,9.2,1.9c0.5,0.4,0.9,0.9,1.2,1.5c0.1,0.2,0.4,0.2,0.5,0c0.3-0.6,0.7-1.1,1.2-1.5
	c1-0.9,2.2-1.3,3.5-1.3c2.8,0,5.2,2.3,5.2,5.2C20.7,7.7,20,9.3,18.6,11z"/>
</svg>
