<?xml version="1.0" encoding="utf-8"?>
<!-- Generator: Adobe Illustrator 18.0.0, SVG Export Plug-In . SVG Version: 6.00 Build 0)  -->
<!DOCTYPE svg PUBLIC "-//W3C//DTD SVG 1.1//EN" "http://www.w3.org/Graphics/SVG/1.1/DTD/svg11.dtd">
<svg version="1.1" id="Слой_1" xmlns="http://www.w3.org/2000/svg" xmlns:xlink="http://www.w3.org/1999/xlink" x="0px" y="0px"
	 viewBox="0 0 23.5 23.5" enable-background="new 0 0 23.5 23.5" xml:space="preserve">
<path fill="#FFFFFF" d="M18.8,11.7c0,3.9-3.2,7.1-7.1,7.1c-3.9,0-7.1-3.2-7.1-7.1c0-0.5,0-0.9,0.1-1.4H0v9.4c0,2,1.6,3.7,3.7,3.7
	h16.1c2,0,3.7-1.6,3.7-3.7v-9.4h-4.8C18.8,10.8,18.8,11.3,18.8,11.7z M19.8,0H3.7C1.6,0,0,1.6,0,3.7v4h5.9c1.3-1.8,3.4-3,5.8-3
	s4.5,1.2,5.8,3h5.9v-4C23.5,1.6,21.8,0,19.8,0z M21.6,4.5c0,0.4-0.3,0.7-0.7,0.7h-2c-0.4,0-0.7-0.3-0.7-0.7v-2
	c0-0.4,0.3-0.7,0.7-0.7h2c0.4,0,0.7,0.3,0.7,0.7V4.5z M16.1,11.7c0-2.4-2-4.4-4.4-4.4c-2.4,0-4.4,2-4.4,4.4c0,2.4,2,4.4,4.4,4.4
	C14.1,16.1,16.1,14.1,16.1,11.7z"/>
</svg>
