<?xml version="1.0" encoding="utf-8"?>
<!-- Generator: Adobe Illustrator 18.0.0, SVG Export Plug-In . SVG Version: 6.00 Build 0)  -->
<!DOCTYPE svg PUBLIC "-//W3C//DTD SVG 1.1//EN" "http://www.w3.org/Graphics/SVG/1.1/DTD/svg11.dtd">
        <svg version="1.1" class="h-slider__slide__logo__svg" data-index="1" xmlns="http://www.w3.org/2000/svg" xmlns:xlink="http://www.w3.org/1999/xlink" x="0px" y="0px"
            viewBox="0 0 712 120.1" enable-background="new 0 0 712 120.1" xml:space="preserve">
        <g>
            <g>
            <path fill="#FFFFFF" d="M16.1,12.5H8.5c-0.5,0-0.8-0.3-0.8-0.8v-2c0-0.5,0.3-0.6,0.8-0.6h22.7c0.6,0,1.1,0.5,1.1,1.1v49.9
                l48.8-49.9c0.6-0.6,1.5-1.1,2.1-1.1h9.5c0.5,0,0.8,0.2,0.8,0.6v2c0,0.5-0.3,0.8-0.8,0.8h-6.5L45.5,54.2c10,12.6,30.9,35,38.9,42.1
                c6,5.2,10.6,8.9,16,8.9c3.5,0,4.9-1.5,5.5-1.5c0.3,0,0.5,0.3,0.8,0.8c0.3,0.5,0.6,1.1,0.6,1.4s-0.3,0.8-1.2,1.4
                c-1.1,0.8-7.1,4.6-15,4.6c-8.4,0-14-2.5-20.4-8c-11.4-9.5-27.3-28.3-38.2-42.2v45.8h8c0.5,0,0.8,0.3,0.8,0.8v2
                c0,0.5-0.3,0.6-0.8,0.6h-23c-0.6,0-1.1-0.5-1.1-1.1C16.1,109.7,16.1,12.5,16.1,12.5z"/>
            <path fill="#FFFFFF" d="M204.8,62.2c-9.7-15.7-21.2-33.9-32.4-49.8h-7.1c-0.5,0-0.8-0.3-0.8-0.8v-2c0-0.5,0.3-0.6,0.8-0.6h24
                c0.6,0,1.2,0.5,1.7,1.1c8.6,12.3,19.5,30.2,28.4,45.1c8.9-14.9,19.7-33.5,27.8-44.8c0.5-0.8,1.1-1.4,2-1.4h11.7
                c0.5,0,0.8,0.2,0.8,0.6v2c0,0.5-0.3,0.8-0.8,0.8H253c-10.3,14.1-21.3,31.5-31.9,49.1v45.8h8.4c0.5,0,0.8,0.3,0.8,0.8v2
                c0,0.5-0.3,0.6-0.8,0.6h-23.6c-0.6,0-1.1-0.5-1.1-1.1L204.8,62.2L204.8,62.2z"/>
            <path fill="#FFFFFF" d="M348.6,106.6h10.4c0.5,0,0.8,0.3,0.8,0.8v2.8c0,0.5-0.3,0.6-0.8,0.6h-15.2c-0.6,0-1.1-0.5-1.1-1.1v-97
                h-7.8c-0.5,0-0.8-0.3-0.8-0.8V9.7c0-0.5,0.3-0.6,0.8-0.6h12.4c0.8,0,1.5,0.6,2.1,1.2c22.9,24.1,59.1,59,81.2,78.5V10.5
                c0-0.9,0.5-1.4,1.4-1.4h12.3c0.5,0,0.8,0.2,0.8,0.6v2c0,0.5-0.3,0.8-0.8,0.8h-7.8v98.7c0,0.6-0.3,1.1-1.1,1.1h-1.2
                c-0.8,0-1.4-0.5-2-1.1c-26.4-21.8-63.6-57-83.8-78.9L348.6,106.6z"/>
            <path fill="#FFFFFF" d="M533.7,26c0,9.4,9.2,15.2,25.5,22.9c16.3,7.7,28.9,17.2,28.9,34.6c0,17.5-14,29.6-35.6,29.6
                c-16.4,0-27.3-7.7-31.6-10.9c-1.7-1.4-2.5-2.1-2.5-3.1c0-0.5,0.3-1.2,0.9-2c0.6-0.8,0.9-1.1,1.7-1.1c0.6,0,1.5,0.8,2.3,1.2
                c5.1,3.4,15.4,10,29,10c13.4,0,23-6.1,23-16.9c0-11.7-11.7-19.2-28.1-27.2c-18.3-8.9-25.3-17.2-25.3-31.3
                c0-15.4,13.2-24.7,31.6-24.7c8.4,0,15.7,2.6,20.7,5.4c4.8,2.6,8.4,5.8,8.4,10.3c0,3.5-2.8,6.3-6.4,6.3c-3.7,0-6.3-2.8-6.3-6.3
                c0-3.1,2.2-5.1,4.3-6c-3.2-2-10.6-5.2-19.4-5.2C543.2,11.6,533.7,16.2,533.7,26z"/>
            <path fill="#FFFFFF" d="M671.6,12.5h-7.7c-0.5,0-0.8-0.3-0.8-0.8v-2c0-0.5,0.3-0.6,0.8-0.6h22.9c0.6,0,1.1,0.5,1.1,1.1v97.2h7.8
                c0.5,0,0.8,0.3,0.8,0.8v2c0,0.5-0.3,0.6-0.8,0.6h-23c-0.6,0-1.1-0.5-1.1-1.1V12.5z"/>
            </g>
        </g>
        </svg>
