<?xml version="1.0" encoding="utf-8"?>
<!-- Generator: Adobe Illustrator 18.0.0, SVG Export Plug-In . SVG Version: 6.00 Build 0)  -->
<!DOCTYPE svg PUBLIC "-//W3C//DTD SVG 1.1//EN" "http://www.w3.org/Graphics/SVG/1.1/DTD/svg11.dtd">
<svg version="1.1" id="Слой_1" xmlns="http://www.w3.org/2000/svg" xmlns:xlink="http://www.w3.org/1999/xlink" x="0px" y="0px"
	 viewBox="0 0 45.2 40.5" enable-background="new 0 0 45.2 40.5" xml:space="preserve">
<path opacity="0.5" fill="#3CB5A2" d="M27.9,26.2c-0.2,0-0.4,0-0.5,0.2c-0.1,0.1-0.2,0.4-0.2,0.5c0.3,1.8,1.5,4.3,5.1,5.9
	c0.4,0.2,1.1,0.3,1.9,0.5c3.1,0.7,8.4,1.8,9.7,6.6c0.1,0.3,0.3,0.5,0.6,0.5c0.1,0,0.1,0,0.2,0c0.3-0.1,0.5-0.4,0.4-0.8
	c-1.5-5.5-7.4-6.8-10.6-7.5c-0.7-0.2-1.4-0.3-1.7-0.4c-2.2-0.9-3.6-2.3-4.2-4.2c6,0.4,8.7-2,8.9-2.1c0.1-0.1,0.2-0.3,0.2-0.5
	c0-0.2-0.1-0.4-0.3-0.5C34,22.5,34,15.6,34,13c0-7.2-4.9-12.9-11.1-13c0,0-0.2,0-0.2,0c0,0,0,0,0,0c-6.3,0-11.5,5.8-11.5,12.8
	c0,2.6,0,9.4-3.5,11.4c-0.2,0.1-0.3,0.3-0.3,0.5c0,0.2,0.1,0.4,0.2,0.5c0.2,0.1,4,3.1,8.8,2.2c-0.6,1.7-2,3.1-4.1,4
	c-0.3,0.1-0.9,0.3-1.6,0.4C7.5,32.6,1.5,34.1,0,39.7c-0.1,0.3,0.1,0.7,0.4,0.8c0.3,0.1,0.7-0.1,0.8-0.4c1.3-4.9,6.6-6.1,9.8-6.9
	c0.8-0.2,1.4-0.3,1.8-0.5c3.6-1.6,4.8-4.1,5.1-5.9c0-0.2,0-0.4-0.2-0.6c-0.2-0.1-0.4-0.2-0.6-0.1c-3.4,1.1-6.6-0.4-8-1.2
	c3.3-2.8,3.3-9.1,3.3-12c0-6.3,4.6-11.5,10.3-11.5c0,0,0.1,0,0.1,0c5.6,0.1,9.8,5.1,9.8,11.8c0,2.8,0,9.2,3.3,12
	C34.9,25.7,32.3,26.7,27.9,26.2z"/>
</svg>
