<?xml version="1.0" encoding="utf-8"?>
<!-- Generator: Adobe Illustrator 18.0.0, SVG Export Plug-In . SVG Version: 6.00 Build 0)  -->
<!DOCTYPE svg PUBLIC "-//W3C//DTD SVG 1.1//EN" "http://www.w3.org/Graphics/SVG/1.1/DTD/svg11.dtd">
<svg version="1.1" id="Слой_1" xmlns="http://www.w3.org/2000/svg" xmlns:xlink="http://www.w3.org/1999/xlink" x="0px" y="0px"
	 viewBox="0 0 68.7 61.5" enable-background="new 0 0 68.7 61.5" xml:space="preserve">
<path opacity="0.5" fill="#292A35" d="M42.5,39.9c-0.3,0-0.6,0.1-0.8,0.3c-0.2,0.2-0.3,0.5-0.2,0.8c0.5,2.8,2.3,6.6,7.8,9
	c0.6,0.3,1.7,0.5,2.9,0.8c4.8,1,12.7,2.8,14.7,10.1c0.1,0.4,0.5,0.7,0.9,0.7c0.1,0,0.2,0,0.3,0c0.5-0.1,0.8-0.7,0.7-1.2
	c-2.3-8.4-11.3-10.4-16.1-11.4c-1.1-0.2-2.1-0.5-2.6-0.7c-3.3-1.4-5.4-3.6-6.3-6.3c9.2,0.7,13.3-3,13.5-3.1c0.2-0.2,0.3-0.5,0.3-0.8
	s-0.2-0.6-0.5-0.7c-5.3-3-5.3-13.5-5.3-17.4c0-11-7.4-19.7-16.9-19.8c0,0-0.2,0-0.3,0c0,0,0,0,0,0c-9.6,0.1-17.5,8.8-17.5,19.4
	c0,3.9,0,14.4-5.3,17.4c-0.3,0.2-0.5,0.4-0.5,0.8c0,0.3,0.1,0.6,0.4,0.8c0.3,0.2,6.1,4.7,13.3,3.3c-1,2.6-3.1,4.7-6.3,6.1
	c-0.5,0.2-1.4,0.4-2.5,0.7c-4.9,1.2-14,3.3-16.3,11.8c-0.1,0.5,0.2,1,0.7,1.2c0.5,0.1,1-0.2,1.2-0.7c2-7.4,10-9.3,14.8-10.5
	c1.2-0.3,2.2-0.5,2.8-0.8c5.5-2.4,7.3-6.2,7.8-9c0.1-0.3-0.1-0.7-0.3-0.9c-0.3-0.2-0.6-0.3-0.9-0.2c-5.2,1.6-10-0.6-12.1-1.9
	c5-4.2,5-13.9,5-18.2C19,9.8,26,2,34.6,1.9c0,0,0.2,0,0.2,0c8.5,0.1,14.9,7.8,14.9,17.9c0,4.3,0,14,5,18.2
	C53.1,39,49.1,40.6,42.5,39.9z"/>
</svg>
