<?xml version="1.0" encoding="utf-8"?>
<!-- Generator: Adobe Illustrator 18.0.0, SVG Export Plug-In . SVG Version: 6.00 Build 0)  -->
<!DOCTYPE svg PUBLIC "-//W3C//DTD SVG 1.1//EN" "http://www.w3.org/Graphics/SVG/1.1/DTD/svg11.dtd">
<svg version="1.1" id="Слой_1" xmlns="http://www.w3.org/2000/svg" xmlns:xlink="http://www.w3.org/1999/xlink" x="0px" y="0px"
	 viewBox="0 0 19.2 25.7" enable-background="new 0 0 19.2 25.7" xml:space="preserve">
<path opacity="0.5" fill="#292A35" d="M1.2,25.7H18c0.7,0,1.2-0.5,1.2-1.2V7.6c0,0,0,0,0,0c0,0,0,0,0-0.1c0-0.1,0-0.1-0.1-0.2
	c0,0,0,0,0,0l-6.4-7.2l0,0c0-0.1-0.1-0.1-0.2-0.1c0,0,0,0,0,0c0,0,0,0-0.1,0H1.2C0.5,0,0,0.5,0,1.2v23.3C0,25.1,0.5,25.7,1.2,25.7z
	 M12.8,1.5l5.1,5.8h-4.7c-0.2,0-0.4-0.3-0.4-0.6V1.5z M0.8,1.2C0.8,1,1,0.8,1.2,0.8H12v5.8C12,7.3,12.6,8,13.2,8h5.2v16.4
	c0,0.2-0.2,0.4-0.4,0.4H1.2c-0.2,0-0.4-0.2-0.4-0.4V1.2z M4.4,11.2h10.4c0.2,0,0.4-0.2,0.4-0.4c0-0.2-0.2-0.4-0.4-0.4H4.4
	c-0.2,0-0.4,0.2-0.4,0.4C4,11,4.2,11.2,4.4,11.2z M4.4,14.4h10.4c0.2,0,0.4-0.2,0.4-0.4c0-0.2-0.2-0.4-0.4-0.4H4.4
	C4.2,13.6,4,13.8,4,14C4,14.3,4.2,14.4,4.4,14.4z M4.4,8h4.8c0.2,0,0.4-0.2,0.4-0.4S9.4,7.2,9.2,7.2H4.4C4.2,7.2,4,7.4,4,7.6
	S4.2,8,4.4,8z M4.4,17.6h10.4c0.2,0,0.4-0.2,0.4-0.4s-0.2-0.4-0.4-0.4H4.4C4.2,16.8,4,17,4,17.2S4.2,17.6,4.4,17.6z M4.4,20.8h10.4
	c0.2,0,0.4-0.2,0.4-0.4S15.1,20,14.8,20H4.4C4.2,20,4,20.2,4,20.4S4.2,20.8,4.4,20.8z"/>
</svg>
