<?xml version="1.0" encoding="utf-8"?>
<!-- Generator: Adobe Illustrator 18.0.0, SVG Export Plug-In . SVG Version: 6.00 Build 0)  -->
<!DOCTYPE svg PUBLIC "-//W3C//DTD SVG 1.1//EN" "http://www.w3.org/Graphics/SVG/1.1/DTD/svg11.dtd">
<svg version="1.1" id="Слой_1" xmlns="http://www.w3.org/2000/svg" xmlns:xlink="http://www.w3.org/1999/xlink" x="0px" y="0px"
	 viewBox="0 0 595.3 841.9" enable-background="new 0 0 595.3 841.9" xml:space="preserve">
<path opacity="0.3" enable-background="new    " d="M86.2,841.9h419c22.9,0,38.1-19,38.1-38.1V38.1c0-22.9-19-38.1-38.1-38.1h-419
	c-19,0-38.1,19-38.1,38.1V800C48.1,822.8,67.2,841.9,86.2,841.9z M74.8,38.1c0-7.6,7.6-11.4,11.4-11.4h419c7.6,0,11.4,7.6,11.4,11.4
	V800c0,7.6-7.6,11.4-11.4,11.4h-419c-7.6,0-11.4-7.6-11.4-11.4V38.1z M112.9,708.6h369.5c7.6,0,11.4-7.6,11.4-11.4V144.8
	c0-7.6-7.6-11.4-11.4-11.4H112.9c-7.6,0-11.4,7.6-11.4,11.4v552.4C101.5,704.7,105.3,708.6,112.9,708.6z M128.1,156.2H471v525.7
	H128.1L128.1,156.2L128.1,156.2z M284.3,761.9c0,15.2,11.4,26.7,26.7,26.7c15.2,0,26.7-11.4,26.7-26.7c0-15.2-11.4-26.7-26.7-26.7
	C295.7,735.2,284.3,746.7,284.3,761.9z M246.2,106.7h106.7c7.6,0,11.4-7.6,11.4-11.4c0-3.8-7.6-15.2-15.2-15.2H246.2
	c-7.6,0-15.2,3.8-15.2,11.4C231,99,238.6,106.7,246.2,106.7z"/>
</svg>
