<?xml version="1.0" encoding="utf-8"?>
<!-- Generator: Adobe Illustrator 18.0.0, SVG Export Plug-In . SVG Version: 6.00 Build 0)  -->
<!DOCTYPE svg PUBLIC "-//W3C//DTD SVG 1.1//EN" "http://www.w3.org/Graphics/SVG/1.1/DTD/svg11.dtd">
<svg version="1.1" id="Слой_1" xmlns="http://www.w3.org/2000/svg" xmlns:xlink="http://www.w3.org/1999/xlink" x="0px" y="0px"
	 viewBox="0 0 13.1 22.1" enable-background="new 0 0 13.1 22.1" xml:space="preserve">
<path opacity="0.3" fill="#FFFFFF" d="M1,22.1h11c0.6,0,1-0.5,1-1V1c0-0.6-0.5-1-1-1H1C0.5,0,0,0.5,0,1v20C0,21.6,0.5,22.1,1,22.1z
	 M0.7,1c0-0.2,0.2-0.3,0.3-0.3h11c0.2,0,0.3,0.2,0.3,0.3v20c0,0.2-0.2,0.3-0.3,0.3H1c-0.2,0-0.3-0.2-0.3-0.3V1z M1.7,18.6h9.7
	c0.2,0,0.3-0.2,0.3-0.3V3.8c0-0.2-0.2-0.3-0.3-0.3H1.7c-0.2,0-0.3,0.2-0.3,0.3v14.5C1.4,18.5,1.5,18.6,1.7,18.6z M2.1,4.1h9v13.8h-9
	V4.1z M6.2,20c0,0.4,0.3,0.7,0.7,0.7s0.7-0.3,0.7-0.7s-0.3-0.7-0.7-0.7S6.2,19.6,6.2,20z M5.2,2.8h2.8c0.2,0,0.3-0.2,0.3-0.3
	S8.1,2.1,7.9,2.1H5.2C5,2.1,4.8,2.2,4.8,2.4S5,2.8,5.2,2.8z"/>
</svg>
