<?xml version="1.0" encoding="utf-8"?>
<!-- Generator: Adobe Illustrator 18.0.0, SVG Export Plug-In . SVG Version: 6.00 Build 0)  -->
<!DOCTYPE svg PUBLIC "-//W3C//DTD SVG 1.1//EN" "http://www.w3.org/Graphics/SVG/1.1/DTD/svg11.dtd">
<svg version="1.1" id="Слой_1" xmlns="http://www.w3.org/2000/svg" xmlns:xlink="http://www.w3.org/1999/xlink" x="0px" y="0px"
	 viewBox="0 0 44.5 40.4" enable-background="new 0 0 44.5 40.4" xml:space="preserve">
<path opacity="0.5" fill="#3CB5A2" d="M38.1,11.7h-5.2c-0.5-3.1-1.6-6.5-3.8-8.9C27.2,0.9,25,0,22.3,0s-4.9,0.9-6.7,2.8
	c-2.2,2.3-3.3,5.8-3.8,8.9H6.5c-3.6,0-6.5,2.9-6.5,6.5v15.7c0,3.6,2.9,6.5,6.5,6.5h31.6c3.6,0,6.5-2.9,6.5-6.5V18.2
	C44.5,14.6,41.6,11.7,38.1,11.7z M16.6,3.8c1.5-1.6,3.4-2.4,5.6-2.4c2.3,0,4.2,0.8,5.6,2.4c1.9,2,2.9,5.1,3.4,7.9H13.2
	C13.7,8.9,14.7,5.8,16.6,3.8z M43.1,33.9c0,2.8-2.3,5.1-5.1,5.1H6.5c-2.8,0-5.1-2.3-5.1-5.1V18.2c0-2.8,2.3-5.1,5.1-5.1h5
	c-0.4,3.1-0.3,5.7-0.2,5.9c0,0.4,0.3,0.7,0.7,0.7c0,0,0,0,0,0c0.4,0,0.7-0.4,0.7-0.8c0-0.1-0.1-2.6,0.3-5.8h18.6
	c0.4,3.2,0.3,5.8,0.3,5.8c0,0.4,0.3,0.7,0.7,0.8c0,0,0,0,0,0c0.4,0,0.7-0.3,0.7-0.7c0-0.2,0.1-2.7-0.2-5.9h5c2.8,0,5.1,2.3,5.1,5.1
	V33.9z"/>
</svg>
