<?xml version="1.0" encoding="utf-8"?>
<!-- Generator: Adobe Illustrator 18.0.0, SVG Export Plug-In . SVG Version: 6.00 Build 0)  -->
<!DOCTYPE svg PUBLIC "-//W3C//DTD SVG 1.1//EN" "http://www.w3.org/Graphics/SVG/1.1/DTD/svg11.dtd">
<svg version="1.1" id="Слой_1" xmlns="http://www.w3.org/2000/svg" xmlns:xlink="http://www.w3.org/1999/xlink" x="0px" y="0px"
	 viewBox="0 0 344.1 24.7" enable-background="new 0 0 344.1 24.7" xml:space="preserve">
<g>
	<path fill="#292A35" d="M2,1.3H0.2C0.1,1.3,0,1.2,0,1.1V0.6c0-0.1,0.1-0.1,0.2-0.1h5.3c0.1,0,0.3,0.1,0.3,0.3v11.6L17.1,0.7
		c0.1-0.1,0.4-0.3,0.5-0.3h2.2c0.1,0,0.2,0,0.2,0.1v0.5c0,0.1-0.1,0.2-0.2,0.2h-1.5L8.8,11c2.3,2.9,7.2,8.2,9,9.8
		c1.4,1.2,2.5,2.1,3.7,2.1c0.8,0,1.1-0.4,1.3-0.4c0.1,0,0.1,0.1,0.2,0.2c0.1,0.1,0.1,0.3,0.1,0.3c0,0.1-0.1,0.2-0.3,0.3
		c-0.3,0.2-1.6,1.1-3.5,1.1c-2,0-3.3-0.6-4.8-1.9c-2.6-2.2-6.4-6.6-8.9-9.8v10.7h1.9c0.1,0,0.2,0.1,0.2,0.2V24
		c0,0.1-0.1,0.1-0.2,0.1H2.2C2.1,24.1,2,24,2,23.9V1.3z"/>
	<path fill="#292A35" d="M45.9,12.8C43.6,9.2,41,4.9,38.4,1.3h-1.6c-0.1,0-0.2-0.1-0.2-0.2V0.6c0-0.1,0.1-0.1,0.2-0.1h5.6
		c0.1,0,0.3,0.1,0.4,0.3c2,2.9,4.5,7,6.6,10.5c2.1-3.5,4.6-7.8,6.5-10.4c0.1-0.2,0.3-0.3,0.5-0.3H59c0.1,0,0.2,0,0.2,0.1v0.5
		c0,0.1-0.1,0.2-0.2,0.2h-1.8c-2.4,3.3-5,7.3-7.4,11.4v10.7h2c0.1,0,0.2,0.1,0.2,0.2V24c0,0.1-0.1,0.1-0.2,0.1h-5.5
		c-0.1,0-0.3-0.1-0.3-0.3V12.8z"/>
	<path fill="#292A35" d="M79.4,23.2h2.4c0.1,0,0.2,0.1,0.2,0.2V24c0,0.1-0.1,0.1-0.2,0.1h-3.5c-0.1,0-0.3-0.1-0.3-0.3V1.3h-1.8
		c-0.1,0-0.2-0.1-0.2-0.2V0.6c0-0.1,0.1-0.1,0.2-0.1h2.9c0.2,0,0.4,0.1,0.5,0.3C84.9,6.4,93.4,14.5,98.5,19V0.8
		c0-0.2,0.1-0.3,0.3-0.3h2.9c0.1,0,0.2,0,0.2,0.1v0.5c0,0.1-0.1,0.2-0.2,0.2h-1.8v23c0,0.1-0.1,0.3-0.3,0.3h-0.3
		c-0.2,0-0.3-0.1-0.5-0.3C92.7,19.2,84.1,11,79.4,5.9L79.4,23.2z"/>
	<path fill="#292A35" d="M122.5,4.4c0,2.2,2.1,3.5,5.9,5.3c3.8,1.8,6.7,4,6.7,8c0,4.1-3.3,6.9-8.3,6.9c-3.8,0-6.4-1.8-7.4-2.5
		c-0.4-0.3-0.6-0.5-0.6-0.7c0-0.1,0.1-0.3,0.2-0.5c0.1-0.2,0.2-0.3,0.4-0.3c0.1,0,0.4,0.2,0.5,0.3c1.2,0.8,3.6,2.3,6.8,2.3
		c3.1,0,5.4-1.4,5.4-3.9c0-2.7-2.7-4.5-6.5-6.3c-4.3-2.1-5.9-4-5.9-7.3c0-3.6,3.1-5.8,7.4-5.8c2,0,3.6,0.6,4.8,1.3
		c1.1,0.6,2,1.4,2,2.4c0,0.8-0.6,1.5-1.5,1.5c-0.9,0-1.5-0.6-1.5-1.5c0-0.7,0.5-1.2,1-1.4c-0.8-0.5-2.5-1.2-4.5-1.2
		C124.7,1,122.5,2.1,122.5,4.4z"/>
	<path fill="#292A35" d="M197.7,4.4c0,2.2,2.1,3.5,5.9,5.3c3.8,1.8,6.7,4,6.7,8c0,4.1-3.3,6.9-8.3,6.9c-3.8,0-6.4-1.8-7.4-2.5
		c-0.4-0.3-0.6-0.5-0.6-0.7c0-0.1,0.1-0.3,0.2-0.5c0.1-0.2,0.2-0.3,0.4-0.3c0.1,0,0.4,0.2,0.5,0.3c1.2,0.8,3.6,2.3,6.8,2.3
		c3.1,0,5.4-1.4,5.4-3.9c0-2.7-2.7-4.5-6.5-6.3c-4.3-2.1-5.9-4-5.9-7.3c0-3.6,3.1-5.8,7.4-5.8c2,0,3.6,0.6,4.8,1.3
		c1.1,0.6,2,1.4,2,2.4c0,0.8-0.6,1.5-1.5,1.5c-0.9,0-1.5-0.6-1.5-1.5c0-0.7,0.5-1.2,1-1.4c-0.8-0.5-2.5-1.2-4.5-1.2
		C199.9,1,197.7,2.1,197.7,4.4z"/>
	<path fill="#292A35" d="M154.6,1.3h-1.8c-0.1,0-0.2-0.1-0.2-0.2V0.6c0-0.1,0.1-0.1,0.2-0.1h5.3c0.1,0,0.3,0.1,0.3,0.3v22.6h1.8
		c0.1,0,0.2,0.1,0.2,0.2V24c0,0.1-0.1,0.1-0.2,0.1h-5.4c-0.1,0-0.3-0.1-0.3-0.3V1.3z"/>
	<g>
		<path fill="#292A35" d="M247.6,1.3h-2.4c-0.1,0-0.2-0.1-0.2-0.2V0.6c0-0.1,0.1-0.1,0.2-0.1h5.9c0.1,0,0.3,0.1,0.3,0.3v22.6h1.8
			c0.1,0,0.2,0.1,0.2,0.2V24c0,0.1-0.1,0.1-0.2,0.1h-5.4c-0.1,0-0.3-0.1-0.3-0.3V1.3z"/>
		<rect x="231.9" y="11.6" fill="#292A35" width="16.8" height="1.4"/>
		<path fill="#292A35" d="M229.4,1.3h-1.8c-0.1,0-0.2-0.1-0.2-0.2V0.6c0-0.1,0.1-0.1,0.2-0.1h5.3c0.1,0,0.3,0.1,0.3,0.3v22.6h2.4
			c0.1,0,0.2,0.1,0.2,0.2V24c0,0.1-0.1,0.1-0.2,0.1h-5.9c-0.1,0-0.3-0.1-0.3-0.3V1.3z"/>
	</g>
	<path fill="#292A35" d="M282.8-0.1c-6.9,0-12.5,5.6-12.5,12.5c0,6.9,5.6,12.5,12.5,12.5c6.9,0,12.5-5.6,12.5-12.5
		C295.3,5.5,289.7-0.1,282.8-0.1z M282.8,23.8c-5.5,0-8.9-5.1-8.9-11.4c0-6.3,3.4-11.4,8.9-11.4s8.9,5.1,8.9,11.4
		C291.7,18.6,288.3,23.8,282.8,23.8z"/>
	<path fill="#292A35" d="M331.7,7.4c-0.2-4.2-3.7-7-11.2-7l-8.1,0c-0.1,0-0.2,0-0.2,0.1v0.5c0,0.1,0.1,0.2,0.2,0.2h1.8v22.6
		c0,0.1,0.1,0.3,0.3,0.3h5.4c0.1,0,0.2,0,0.2-0.1v-0.5c0-0.1-0.1-0.2-0.2-0.2h-1.8v-9l2.6,0C328,14.4,331.5,11.7,331.7,7.4
		L331.7,7.4z M323.1,12.7c-0.8,0.2-1.7,0.3-2.6,0.3h-2.5V1.9h2.5c0.9,0,1.8,0.1,2.6,0.3c2.7,0.6,4.7,2.3,4.9,5.3h0
		C327.8,10.4,325.7,12.1,323.1,12.7z"/>
</g>
</svg>
