<?xml version="1.0" encoding="utf-8"?>
<!-- Generator: Adobe Illustrator 18.0.0, SVG Export Plug-In . SVG Version: 6.00 Build 0)  -->
<!DOCTYPE svg PUBLIC "-//W3C//DTD SVG 1.1//EN" "http://www.w3.org/Graphics/SVG/1.1/DTD/svg11.dtd">
<svg version="1.1" id="Слой_1" xmlns="http://www.w3.org/2000/svg" xmlns:xlink="http://www.w3.org/1999/xlink" x="0px" y="0px"
	 viewBox="0 0 27.6 52.3" enable-background="new 0 0 27.6 52.3" xml:space="preserve">
<g>
	<g>
		<path fill="#FFFFFF" d="M1,27.2c-0.3,0-0.5-0.1-0.7-0.3c-0.4-0.4-0.4-1,0-1.4L25.9,0.3c0.4-0.4,1-0.4,1.4,0c0.4,0.4,0.4,1,0,1.4
			L1.7,26.9C1.5,27.1,1.3,27.2,1,27.2z"/>
		<path fill="#FFFFFF" d="M26.6,52.3c-0.3,0-0.5-0.1-0.7-0.3L0.3,26.9c-0.4-0.4-0.4-1,0-1.4c0.4-0.4,1-0.4,1.4,0l25.6,25.2
			c0.4,0.4,0.4,1,0,1.4C27.1,52.2,26.8,52.3,26.6,52.3z"/>
	</g>
</g>
</svg>
