<?xml version="1.0" encoding="utf-8"?>
<!-- Generator: Adobe Illustrator 18.0.0, SVG Export Plug-In . SVG Version: 6.00 Build 0)  -->
<!DOCTYPE svg PUBLIC "-//W3C//DTD SVG 1.1//EN" "http://www.w3.org/Graphics/SVG/1.1/DTD/svg11.dtd">
<svg version="1.1" id="Слой_1" xmlns="http://www.w3.org/2000/svg" xmlns:xlink="http://www.w3.org/1999/xlink" x="0px" y="0px"
	 viewBox="0 0 22.1 29.5" enable-background="new 0 0 22.1 29.5" xml:space="preserve">
<g opacity="0.5">
	<path opacity="0.5" fill="#010202" d="M11,0C5,0,0,5,0,11.1C0,20.2,10.3,29,10.7,29.3c0.1,0.1,0.2,0.1,0.3,0.1s0.2,0,0.3-0.1
		c0.4-0.4,10.8-9,10.8-18.3C22.1,5,17.1,0,11,0z M11,28.4C9.4,26.9,0.9,18.9,0.9,11.1C0.9,5.5,5.5,0.9,11,0.9s10.1,4.6,10.1,10.1
		C21.2,19.1,12.7,26.9,11,28.4z M11,5.5C8,5.5,5.5,8,5.5,11S8,16.6,11,16.6s5.5-2.5,5.5-5.5S14.1,5.5,11,5.5z M11,15.6
		c-2.5,0-4.6-2.1-4.6-4.6S8.5,6.4,11,6.4s4.6,2.1,4.6,4.6S13.6,15.6,11,15.6z"/>
</g>
</svg>
