<?xml version="1.0" encoding="utf-8"?>
<!-- Generator: Adobe Illustrator 18.0.0, SVG Export Plug-In . SVG Version: 6.00 Build 0)  -->
<!DOCTYPE svg PUBLIC "-//W3C//DTD SVG 1.1//EN" "http://www.w3.org/Graphics/SVG/1.1/DTD/svg11.dtd">
<svg version="1.1" id="Слой_1" xmlns="http://www.w3.org/2000/svg" xmlns:xlink="http://www.w3.org/1999/xlink" x="0px" y="0px"
	 viewBox="0 0 24 32" enable-background="new 0 0 24 32" xml:space="preserve">
<linearGradient id="SVGID_1_" gradientUnits="userSpaceOnUse" x1="0" y1="16" x2="24" y2="16">
	<stop  offset="0" style="stop-color:#31B296"/>
	<stop  offset="1" style="stop-color:#04819B"/>
</linearGradient>
<path fill="url(#SVGID_1_)" d="M12,0C5.4,0,0,5.4,0,12c0,9.9,11.2,19.5,11.7,19.9C11.8,32,11.9,32,12,32s0.2,0,0.3-0.1
	C12.8,31.5,24,22.1,24,12C24,5.4,18.6,0,12,0z M12,18c-3.3,0-6-2.7-6-6s2.7-6,6-6s6,2.7,6,6S15.3,18,12,18z"/>
</svg>
