<?xml version="1.0" encoding="utf-8"?>
<!-- Generator: Adobe Illustrator 18.0.0, SVG Export Plug-In . SVG Version: 6.00 Build 0)  -->
<!DOCTYPE svg PUBLIC "-//W3C//DTD SVG 1.1//EN" "http://www.w3.org/Graphics/SVG/1.1/DTD/svg11.dtd">
<svg version="1.1" id="Слой_1" xmlns="http://www.w3.org/2000/svg" xmlns:xlink="http://www.w3.org/1999/xlink" x="0px" y="0px"
	 viewBox="0 0 19.6 11.2" enable-background="new 0 0 19.6 11.2" xml:space="preserve">
<path fill="#FFFFFF" d="M18.6,11.2l-2.6,0c0,0-0.6,0.1-1.3-0.4c-1-0.7-1.9-2.4-2.6-2.2c-0.7,0.2-0.7,1.8-0.7,1.8s0,0.3-0.2,0.5
	c-0.2,0.2-0.5,0.2-0.5,0.2H9.6c0,0-2.6,0.2-4.8-2.2C2.3,6.5,0.2,1.4,0.2,1.4s-0.1-0.3,0-0.5c0.2-0.2,0.6-0.2,0.6-0.2l2.8,0
	c0,0,0.3,0,0.4,0.2C4.1,1,4.2,1.2,4.2,1.2s0.4,1.1,1,2.1c1.2,2,1.7,2.4,2.1,2.2c0.6-0.3,0.4-2.8,0.4-2.8s0-0.9-0.3-1.3
	C7.2,1.1,6.8,1,6.6,1C6.4,1,6.7,0.6,7,0.5c0.5-0.2,1.4-0.3,2.4-0.2c0.8,0,1,0.1,1.4,0.1c1,0.2,0.6,1.1,0.6,3.2c0,0.7-0.1,1.6,0.4,2
	c0.2,0.1,0.7,0,2-2.2c0.6-1,1.1-2.3,1.1-2.3s0.1-0.2,0.3-0.3c0.2-0.1,0.4-0.1,0.4-0.1l2.9,0c0,0,0.9-0.1,1,0.3
	c0.1,0.4-0.3,1.4-1.5,3c-2,2.6-2.2,2.4-0.6,3.9c1.5,1.4,1.9,2.1,1.9,2.2C19.9,11.1,18.6,11.2,18.6,11.2z"/>
</svg>
