<?xml version="1.0" standalone="no"?>
<!DOCTYPE svg PUBLIC "-//W3C//DTD SVG 20010904//EN"
 "http://www.w3.org/TR/2001/REC-SVG-20010904/DTD/svg10.dtd">
<svg version="1.0" xmlns="http://www.w3.org/2000/svg"
 width="512.000000pt" height="512.000000pt" viewBox="0 0 512.000000 512.000000"
 preserveAspectRatio="xMidYMid meet">
<metadata>
Created by potrace 1.11, written by Peter Selinger 2001-2013
</metadata>
<g transform="translate(0.000000,512.000000) scale(0.100000,-0.100000)"
fill="#000000" stroke="none">
<path d="M1119 4150 c-2 -30 3 -65 12 -76 5 -6 58 -10 136 -9 l128 1 -1 -1553
c0 -1097 3 -1553 10 -1556 6 -2 177 -3 381 -3 l369 1 2 43 c0 23 -4 46 -10 50
-6 4 -69 7 -141 7 l-130 0 -1 722 c0 603 2 723 13 728 8 2 12 1 9 -4 -3 -5 7
-22 23 -39 16 -17 27 -33 24 -36 -3 -3 2 -8 11 -12 9 -3 16 -12 16 -20 0 -8 9
-19 20 -26 11 -7 20 -17 20 -21 0 -12 27 -37 34 -32 3 3 4 2 1 -1 -7 -11 36
-65 46 -58 5 3 8 2 7 -3 -4 -15 23 -54 34 -47 7 4 8 3 4 -4 -4 -7 -2 -12 3
-12 6 0 11 -4 11 -10 0 -17 33 -49 43 -43 6 3 7 1 4 -4 -4 -6 8 -27 26 -47 17
-20 41 -47 52 -61 10 -13 24 -21 29 -18 5 3 6 2 3 -3 -3 -5 4 -21 15 -34 11
-14 16 -19 12 -11 -5 9 -3 12 4 7 7 -4 12 -13 12 -19 0 -7 24 -38 54 -70 30
-31 52 -57 50 -57 -3 0 8 -12 23 -28 15 -15 31 -26 35 -24 4 1 7 -2 6 -6 -3
-8 29 -46 87 -106 17 -17 43 -48 59 -68 15 -21 32 -35 37 -32 5 3 9 0 9 -6 0
-18 103 -120 113 -113 6 3 7 2 4 -4 -3 -5 34 -48 84 -94 50 -46 106 -99 125
-117 19 -17 36 -32 38 -32 3 0 18 -12 34 -27 16 -16 41 -37 56 -48 14 -11 33
-25 40 -32 13 -11 28 -21 132 -79 23 -13 44 -20 48 -17 3 4 6 1 6 -6 0 -8 7
-11 15 -7 8 3 15 1 15 -5 0 -6 4 -8 9 -4 5 3 13 0 16 -6 4 -5 13 -8 21 -5 8 3
14 1 14 -5 0 -6 5 -7 10 -4 6 4 16 2 23 -3 7 -5 19 -10 27 -10 8 0 33 -4 55
-7 42 -7 217 -9 273 -4 17 2 32 7 32 12 0 4 4 6 9 2 5 -3 31 2 56 11 26 8 56
17 68 19 11 3 29 12 40 22 11 10 17 12 13 6 -5 -9 -2 -11 8 -7 9 3 16 10 16
15 0 5 5 9 11 9 22 0 79 32 73 42 -3 5 2 8 12 6 11 -2 18 2 17 9 -2 7 0 12 5
12 35 -6 40 24 12 68 -12 19 -16 20 -30 8 -15 -13 -19 -15 -41 -15 -5 0 -8 -4
-5 -9 4 -5 -2 -8 -11 -6 -10 1 -22 0 -28 -4 -13 -7 -33 -11 -75 -12 -30 -1
-95 7 -95 11 0 1 -11 3 -24 6 -14 2 -30 9 -38 15 -7 6 -13 8 -13 5 0 -4 -7 0
-16 8 -8 9 -22 16 -30 16 -8 0 -14 4 -14 10 0 5 -7 6 -17 3 -9 -4 -14 -2 -10
3 3 6 -8 19 -26 29 -18 11 -41 27 -51 37 -10 9 -24 15 -29 11 -6 -3 -7 -1 -4
4 4 6 -1 17 -10 24 -14 12 -16 12 -8 -1 5 -8 -5 -1 -21 15 -16 17 -52 48 -78
70 -46 37 -266 253 -266 260 0 8 -66 69 -72 67 -5 -1 -8 2 -8 8 0 15 -81 95
-94 92 -6 -2 -8 -1 -4 3 4 4 -6 21 -22 39 -17 17 -30 34 -30 38 0 4 -9 10 -20
13 -11 4 -18 10 -15 15 7 11 -20 31 -30 22 -5 -4 -5 -2 -2 4 4 7 -1 18 -10 25
-14 12 -16 12 -8 0 5 -10 4 -12 -3 -7 -7 4 -12 13 -12 21 0 8 -8 19 -17 24
-10 6 -15 11 -11 11 3 0 -12 20 -35 44 -23 24 -46 42 -51 38 -5 -3 -6 0 -2 6
3 6 -5 19 -19 30 -14 11 -25 24 -25 28 0 4 -20 27 -46 51 -25 24 -42 43 -38
43 4 0 -22 28 -57 62 -35 35 -53 54 -39 43 21 -17 21 -15 -4 12 -16 18 -34 30
-39 26 -6 -3 -7 -2 -4 3 3 6 -16 33 -42 62 -26 29 -46 52 -43 52 2 0 -1 7 -8
15 -7 8 -17 12 -24 8 -6 -3 -8 -3 -4 1 6 7 -13 34 -53 76 -8 9 -19 24 -22 34
-4 9 -12 14 -17 11 -6 -4 -9 -3 -8 2 2 4 -8 23 -22 41 -22 30 -36 67 -22 58 4
-2 38 27 75 65 37 38 66 69 63 69 -3 0 2 8 12 18 9 11 20 17 24 15 4 -2 14 9
22 24 8 15 15 25 16 21 0 -4 24 19 52 50 29 31 65 67 81 80 15 13 24 28 21 33
-3 5 0 8 8 7 7 -2 12 3 10 10 -1 6 1 11 5 10 11 -4 59 45 55 55 -1 5 1 6 6 3
11 -6 92 77 92 94 0 6 4 9 9 6 5 -3 15 2 22 11 12 14 12 16 0 8 -10 -5 -12 -4
-7 3 4 7 12 12 18 12 10 0 52 42 88 87 10 13 21 24 24 24 3 -1 7 2 8 7 1 4 31
36 67 70 36 35 65 68 63 74 -1 5 1 7 5 5 11 -7 74 59 65 68 -4 3 -2 5 3 3 13
-4 115 96 115 113 0 7 3 10 6 6 3 -3 42 31 85 76 44 45 98 100 120 123 21 22
36 44 32 49 -5 4 -2 5 5 1 6 -4 12 -3 12 1 0 5 50 8 110 7 61 0 110 4 110 8 0
5 4 7 9 4 7 -5 9 59 2 84 -2 8 -331 6 -331 -2 0 -4 -7 -5 -15 -2 -8 4 -15 1
-15 -6 0 -6 -3 -9 -7 -7 -5 2 -25 -13 -46 -34 -21 -22 -36 -39 -33 -39 3 0 -2
-8 -11 -18 -10 -11 -22 -17 -26 -14 -5 2 -11 -4 -13 -15 -3 -10 -18 -27 -35
-38 -16 -11 -29 -23 -29 -27 0 -4 -26 -33 -57 -64 -32 -32 -57 -61 -55 -66 1
-4 -4 -7 -10 -6 -7 2 -12 -3 -10 -10 1 -6 -4 -11 -10 -10 -7 2 -12 -3 -10 -10
1 -8 -1 -11 -6 -8 -12 7 -64 -48 -55 -58 5 -4 1 -6 -7 -4 -8 2 -14 -3 -12 -9
1 -7 -4 -13 -12 -13 -7 0 -25 -15 -39 -32 -13 -18 -47 -55 -75 -82 -28 -28
-49 -53 -46 -57 2 -4 -1 -11 -7 -15 -8 -5 -9 -3 -4 7 5 8 -5 1 -22 -15 -18
-17 -30 -33 -27 -38 3 -4 0 -8 -6 -8 -18 0 -300 -292 -293 -303 3 -6 2 -7 -4
-4 -13 8 -56 -37 -46 -48 5 -4 3 -6 -3 -2 -11 6 -104 -83 -104 -101 0 -6 -5
-14 -12 -18 -7 -5 -8 -2 -3 7 5 8 -10 -5 -33 -28 -23 -23 -42 -46 -42 -52 0
-6 -6 -10 -12 -9 -7 2 -12 -3 -10 -10 1 -6 -1 -11 -5 -10 -5 2 -9 -1 -10 -5
-1 -5 -19 -22 -39 -38 -20 -16 -34 -29 -31 -29 3 0 -20 -26 -51 -57 -31 -31
-56 -61 -54 -65 1 -4 -3 -8 -10 -8 -12 0 -114 -101 -111 -110 1 -3 -6 -6 -15
-7 -16 -1 -17 54 -14 790 1 545 -1 794 -8 801 -7 7 -137 11 -390 11 -331 0
-380 -2 -381 -15z m1981 -384 c0 -2 -8 -10 -17 -17 -16 -13 -17 -12 -4 4 13
16 21 21 21 13z m-290 -510 c0 -2 -8 -10 -17 -17 -16 -13 -17 -12 -4 4 13 16
21 21 21 13z m-370 -170 c0 -2 -8 -10 -17 -17 -16 -13 -17 -12 -4 4 13 16 21
21 21 13z"/>
</g>
</svg>
